<?xml version="1.0"?>
<svg width="512" height="512" xmlns="http://www.w3.org/2000/svg" xmlns:svg="http://www.w3.org/2000/svg" version="1.1" xml:space="preserve">
 <g class="layer">
  <title>Layer 1</title>
  <g id="svg_1" transform="matrix(1 0 0 1 0 0)">
   <g id="svg_2">
    <path d="m469.53,75.93l-357.88,0c-23.42,0 -42.47,19.04 -42.47,42.46l0,26.71l-26.72,0c-23.41,0 -42.46,19.06 -42.46,42.48l0,206.03c0,23.42 19.05,42.46 42.46,42.46l357.88,0c23.42,0 42.47,-19.05 42.47,-42.46l0,-26.71l26.72,0c23.42,0 42.47,-19.06 42.47,-42.48l0,-206.03c0,-23.42 -19.05,-42.46 -42.47,-42.46zm20.07,248.49c0,11.07 -9.01,20.07 -20.07,20.07l-26.72,0l0,-117.41l46.79,0l0,97.34zm0,-119.74l-46.79,0l0,-17.1c0,-7.26 -1.83,-14.09 -5.05,-20.07l51.84,0l0,37.17zm0,-59.58l-89.26,0l-16.09,0c-6.18,0 -11.2,5.02 -11.2,11.21s5.02,11.2 11.2,11.2l16.09,0c11.06,0 20.07,9 20.07,20.07l0,206.03l0,0c0,11.06 -9.01,20.06 -20.07,20.06l-357.88,0c-11.06,0 -20.06,-9 -20.06,-20.06l0,-206.03c0,-11.07 9,-20.07 20.06,-20.07l268.99,0c6.18,0 11.2,-5.02 11.2,-11.2s-5.02,-11.21 -11.2,-11.21l-219.87,0l0,-26.71c0,-11.06 9,-20.06 20.07,-20.06l357.88,0c11.06,0 20.07,9 20.07,20.06l0,26.71z" fill="#dc7000" id="svg_3"/>
   </g>
  </g>
  <g id="svg_4">
   <g id="svg_5">
    <path d="m350.09,145.1l-3.92,0c-6.19,0 -11.2,5.02 -11.2,11.21s5.01,11.2 11.2,11.2l3.92,0c6.18,0 11.2,-5.02 11.2,-11.2s-5.02,-11.21 -11.2,-11.21z" fill="#dc7000" id="svg_6"/>
   </g>
  </g>
  <g id="svg_7" transform="matrix(1 0 0 1 0 0)">
   <g id="svg_8">
    <path d="m125.7,213.05l-31.77,0c-16.57,0 -30.05,13.49 -30.05,30.06l0,8.34c0,16.57 13.48,30.06 30.05,30.06l31.77,0c16.57,0 30.05,-13.49 30.05,-30.06l0,-8.34c0,-16.57 -13.48,-30.06 -30.05,-30.06zm7.65,38.4c0,4.22 -3.43,7.66 -7.65,7.66l-31.77,0c-4.22,0 -7.65,-3.44 -7.65,-7.66l0,-8.34c0,-4.22 3.43,-7.66 7.65,-7.66l31.77,0c4.22,0 7.65,3.44 7.65,7.66l0,8.34z" fill="#dc7000" id="svg_9"/>
   </g>
  </g>
  <g id="svg_10" transform="matrix(1 0 0 1 0 0)">
   <g id="svg_11">
    <path d="m234.07,356.23l-164.84,0c-6.18,0 -11.2,5.02 -11.2,11.2s5.02,11.21 11.2,11.21l164.84,0c6.19,0 11.2,-5.02 11.2,-11.21s-5.02,-11.2 -11.2,-11.2z" fill="#dc7000" id="svg_12"/>
   </g>
  </g>
  <g id="svg_13" transform="matrix(1 0 0 1 0 0)">
   <g id="svg_14">
    <path d="m164.53,316.1l-95.3,0c-6.18,0 -11.2,5.01 -11.2,11.2s5.02,11.2 11.2,11.2l95.3,0c6.19,0 11.2,-5.01 11.2,-11.2s-5.01,-11.2 -11.2,-11.2z" fill="#dc7000" id="svg_15"/>
   </g>
  </g>
  <g id="svg_16" transform="matrix(1 0 0 1 0 0)">
   <g id="svg_17">
    <path d="m390.93,338.62c-1.87,-17.15 -15.74,-30.56 -32.99,-31.88c-7.45,-0.56 -14.77,1.15 -21.11,4.94c-0.11,0.07 -0.16,0.07 -0.25,0.01c-6.36,-3.8 -13.66,-5.51 -21.15,-4.94c-17.22,1.31 -31.09,14.71 -32.97,31.84c-0.91,8.15 0.88,16.1 5.18,23.02c6.63,10.66 18.06,17.03 30.59,17.03c6.51,0 12.88,-1.77 18.46,-5.12c5.58,3.35 11.96,5.12 18.47,5.12c12.54,0 23.97,-6.37 30.59,-17.03c4.28,-6.89 6.07,-14.84 5.18,-22.99zm-24.21,11.16c0,0.01 -0.01,0.01 -0.01,0.01c-2.5,4.03 -6.81,6.44 -11.55,6.44c-2.48,0 -4.91,-0.68 -7.03,-1.98c-3.48,-2.13 -7.45,-3.19 -11.44,-3.19c-3.98,0 -7.96,1.06 -11.43,3.19c-2.12,1.3 -4.55,1.98 -7.03,1.98c-4.73,0 -9.05,-2.41 -11.56,-6.45c-1.62,-2.6 -2.29,-5.62 -1.94,-8.73c0.69,-6.34 6.03,-11.48 12.4,-11.97c2.84,-0.21 5.59,0.42 7.99,1.86c7.14,4.24 16.01,4.24 23.18,-0.02c2.37,-1.42 5.13,-2.06 7.95,-1.84c6.38,0.49 11.72,5.63 12.41,11.97c0.34,3.12 -0.33,6.14 -1.94,8.73z" fill="#dc7000" id="svg_18"/>
   </g>
  </g>
 </g>
</svg>